<svg xmlns="http://www.w3.org/2000/svg" xmlns:xlink="http://www.w3.org/1999/xlink" width="26.343" height="26.343" viewBox="0 0 26.343 26.343">
  <defs>
    <filter id="Контур_2" x="0" y="0" width="26.343" height="26.343" filterUnits="userSpaceOnUse">
      <feOffset dy="3" input="SourceAlpha"/>
      <feGaussianBlur stdDeviation="2" result="blur"/>
      <feFlood flood-opacity="0.251"/>
      <feComposite operator="in" in2="blur"/>
      <feComposite in="SourceGraphic"/>
    </filter>
  </defs>
  <g id="Сгруппировать_23" data-name="Сгруппировать 23" transform="translate(-446 -794)">
    <g transform="matrix(1, 0, 0, 1, 446, 794)" filter="url(#Контур_2)">
      <g id="Контур_2-2" data-name="Контур 2" transform="translate(6 3)" fill="#fff">
        <path d="M 7.17132568359375 13.59265613555908 C 5.801455497741699 13.59265613555908 4.514135837554932 13.15233612060547 3.235795736312866 12.24652576446533 L 3.233555793762207 12.24494552612305 L 3.231305599212646 12.24337577819824 C 1.723965644836426 11.19178581237793 0.7499957084655762 9.200885772705078 0.7499957084655762 7.17132568359375 C 0.7499957084655762 3.630595684051514 3.630595684051514 0.7499957084655762 7.17132568359375 0.7499957084655762 C 10.71205615997314 0.7499957084655762 13.59265613555908 3.630595684051514 13.59265613555908 7.17132568359375 C 13.59265613555908 10.71205615997314 10.71205615997314 13.59265613555908 7.17132568359375 13.59265613555908 Z" stroke="none"/>
        <path d="M 7.17132568359375 1.499995231628418 C 4.044145584106445 1.499995231628418 1.499995231628418 4.044145584106445 1.499995231628418 7.17132568359375 C 1.499995231628418 8.963215827941895 2.348015785217285 10.71266555786133 3.660435676574707 11.62826538085938 L 3.669415473937988 11.6345853805542 C 4.832585334777832 12.45878601074219 5.945335388183594 12.84265518188477 7.17132568359375 12.84265518188477 C 10.29850578308105 12.84265518188477 12.84265518188477 10.29850578308105 12.84265518188477 7.17132568359375 C 12.84265518188477 4.044145584106445 10.29850578308105 1.499995231628418 7.17132568359375 1.499995231628418 M 7.17132568359375 -4.76837158203125e-06 C 11.13194561004639 -4.76837158203125e-06 14.34265613555908 3.210715293884277 14.34265613555908 7.17132568359375 C 14.34265613555908 11.13194561004639 11.13194561004639 14.34265613555908 7.17132568359375 14.34265613555908 C 5.638566017150879 14.34265613555908 4.218125343322754 13.86178588867188 2.802186012268066 12.85847568511963 C 1.206485748291016 11.74524593353271 -4.76837158203125e-06 9.599185943603516 -4.76837158203125e-06 7.17132568359375 C -4.76837158203125e-06 3.210715293884277 3.210715293884277 -4.76837158203125e-06 7.17132568359375 -4.76837158203125e-06 Z" stroke="none" fill="#3a9430"/>
      </g>
    </g>
    <path id="Icon_metro-cross" data-name="Icon metro-cross" d="M6.366,5.162h0L4.417,3.213,6.366,1.263h0a.2.2,0,0,0,0-.284L5.446.059a.2.2,0,0,0-.284,0h0L3.213,2.008,1.263.059h0a.2.2,0,0,0-.284,0L.059.979a.2.2,0,0,0,0,.284h0L2.008,3.213.059,5.162h0a.2.2,0,0,0,0,.284l.921.921a.2.2,0,0,0,.284,0h0L3.213,4.417,5.162,6.366h0a.2.2,0,0,0,.284,0l.921-.921a.2.2,0,0,0,0-.284Z" transform="translate(454.588 804.171) rotate(-45)" fill="#3a9430"/>
  </g>
</svg>
